<svg xmlns="http://www.w3.org/2000/svg" aria-hidden="true" style="position:absolute;width:0;height:0;overflow:hidden">
  <defs>
    <symbol id="Logo-2" viewBox="0 0 59 32">
      <path fill="" d="M28.637 3.391h-.078c-.12-.007-.24-.01-.36-.013h-.26c-.227 0-.458.006-.688.017l-.026-.001-.027.001h.001c-2.206.129-4.255.68-6.106 1.575l.096-.042-.247.119V17.7l.578-.197a22.494 22.494 0 0 1 1.607-.477c1.382-.37 2.973-.592 4.612-.614h.013v1.662c-.218.001-.43.007-.641.019l.033-.001h-.048a18.56 18.56 0 0 0-3.688.575l.129-.029c-1.61.409-3.021.975-4.333 1.7l.093-.047V4.064a16.636 16.636 0 0 1 4.331-1.784l.118-.026c1.256-.338 2.7-.535 4.189-.541h.247c.292.007.577.021.845.041.705.05 1.403.161 2.089.333v1.636a12.316 12.316 0 0 0-1.981-.303l-.042-.002-.042-.003c-.141-.012-.282-.024-.414-.024zm2.879 1.672c.363.028.739.041 1.119.041a17.996 17.996 0 0 0 4.533-.594l-.125.028c1.61-.411 3.02-.977 4.331-1.7l-.094.047v15.937a16.634 16.634 0 0 1-4.331 1.783l-.118.026c-1.257.337-2.7.533-4.189.539h-.107c-1.093 0-2.153-.137-3.166-.394l.089.019V4.754c.246.057.499.109.756.153.422.071.867.123 1.301.155zm8.111.124-.578.194c-.351.129-.887.293-1.431.44l-.177.041c-1.44.385-3.094.61-4.8.616h-.004c-.377 0-.724-.01-1.059-.032l-.461-.03v13.015l.396.034c.367.033.746.049 1.127.049A15.376 15.376 0 0 0 36.53 19l-.107.024a15.79 15.79 0 0 0 3.051-1.104l-.094.041.247-.119V5.186zM20.421 25.835a.85.85 0 0 0-.613-.261l-.032.001h.002-.013a.966.966 0 0 0-.365.072l.006-.002a.837.837 0 0 0-.473.475l-.002.006a.919.919 0 0 0-.066.359v2.168c-.006.153.024.305.085.445.051.111.125.21.217.291a.748.748 0 0 0 .297.154c.106.029.215.045.324.045a.919.919 0 0 0 .899-.912v-.242h-.567v.206a.481.481 0 0 1-.035.183l.001-.003a.337.337 0 0 1-.082.122.402.402 0 0 1-.237.083.286.286 0 0 1-.265-.116l-.001-.001a.504.504 0 0 1-.076-.269v-.023.001-2.022a.7.7 0 0 1 .07-.324.29.29 0 0 1 .244-.133l.035.002h-.001.011c.099 0 .187.048.242.122l.001.001a.453.453 0 0 1 .094.279v.013-.001.187h.561v-.231c0-.133-.025-.26-.072-.377l.002.007a.894.894 0 0 0-.19-.306zm3.367-.024a.976.976 0 0 0-.982-.178.897.897 0 0 0-.517.475l-.002.006a1.007 1.007 0 0 0-.083.42v2.079a1.01 1.01 0 0 0 .083.426.847.847 0 0 0 .219.291c.087.08.189.143.299.183a.978.978 0 0 0 .984-.184l-.001.001a.893.893 0 0 0 .214-.291c.058-.134.086-.279.083-.426v-2.097a1.01 1.01 0 0 0-.086-.408l.003.006a.951.951 0 0 0-.213-.304zm-.265 2.803.001.032a.374.374 0 0 1-.114.269.416.416 0 0 1-.534-.001h.001a.373.373 0 0 1-.114-.268l.002-.035v.001-2.079l-.001-.032c0-.105.044-.201.114-.268a.416.416 0 0 1 .534.001h-.001c.07.068.114.163.114.268 0 .011 0 .023-.002.034v-.001 2.08zm4.687.929v-3.937h-.545l-.716 2.084h-.01l-.722-2.083h-.539v3.936h.562v-2.394h.01l.55 1.693h.281l.555-1.693h.01v2.394h.562zm3.195-3.661a.779.779 0 0 0-.318-.215 1.215 1.215 0 0 0-.386-.061h-.023.001-.835v3.937h.561v-1.538h.289l.047.001c.168 0 .326-.04.466-.111l-.006.003a.823.823 0 0 0 .306-.297l.002-.004a.94.94 0 0 0 .129-.343c.019-.124.03-.267.03-.412v-.037.002a2.212 2.212 0 0 0-.055-.562.836.836 0 0 0-.207-.362zm-.29 1.2a.5.5 0 0 1-.053.208l.001-.003a.316.316 0 0 1-.143.137l-.002.001a.562.562 0 0 1-.235.05l-.03-.001h.001-.256v-1.338h.289l.027-.001a.53.53 0 0 1 .229.051l-.003-.001a.323.323 0 0 1 .131.143l.001.002c.029.064.047.14.049.219v.262c0 .091.006.186 0 .27h-.006zm2.947-1.476h-.46l-.867 3.937h.561l.165-.846h.765l.165.846h.561l-.889-3.937zm-.518 2.555.276-1.427h.01l.274 1.427h-.561zm4.142-.184h-.01l-.847-2.371h-.539v3.937h.561v-2.367h.011l.857 2.367h.528v-3.936h-.561v2.371zm3.427-2.371-.451 1.566h-.011l-.451-1.566h-.593l.77 2.273v1.663h.561v-1.663l.77-2.273h-.594zm-22.256 5.048h.27v.758h.183v-.759h.269v-.155h-.722v.156zm2.273-.156-.354.914h.195l.075-.208h.365l.078.208h.2l-.363-.914h-.195zm-.029.553.124-.339.124.339H21.1zm2.275.024h.211v.118a.344.344 0 0 1-.217.077h-.013a.231.231 0 0 1-.181-.087.376.376 0 0 1-.068-.218l.001-.021v.001c0-.203.088-.305.263-.305l.02-.001c.09 0 .166.062.187.145v.001l.181-.035c-.039-.178-.167-.269-.387-.269h-.012a.462.462 0 0 0-.308.118.444.444 0 0 0-.132.353v-.002.021c0 .123.044.235.118.322l-.001-.001a.445.445 0 0 0 .319.135l.029-.001h-.001.015a.546.546 0 0 0 .373-.146v-.36h-.396v.154zm2.294-.577h-.185v.914h.64v-.155h-.455v-.759zm1.94 0h-.185v.914h.185v-.914zm1.896.611-.374-.61h-.179v.914h.171v-.597l.367.597h.184v-.914h-.17v.611zm1.715-.099h.455v-.155h-.455v-.2h.49v-.156h-.675v.914h.694v-.155h-.509v-.247zm4.157-.151h-.36v-.36h-.183v.914h.183v-.4h.36v.4h.184v-.914h-.184v.361zm1.725.151h.457v-.155h-.457v-.2h.491v-.156h-.674v.914h.693v-.155h-.509v-.247zm2.339 0c.159-.025.24-.109.24-.254a.211.211 0 0 0-.089-.203h-.001a.506.506 0 0 0-.232-.055l-.037.001h.002-.387v.914h.184v-.382h.051c.036 0 .07.008.101.022l-.002-.001a.195.195 0 0 1 .065.066l.001.001.199.29h.219l-.111-.178a.635.635 0 0 0-.2-.218l-.002-.001zm-.185-.127h-.135v-.229h.145a.461.461 0 0 1 .19.022l-.003-.001c.025.022.04.054.04.089a.12.12 0 0 1-.048.096.496.496 0 0 1-.153.023l-.036-.001h.002zm1.949.127h.455v-.155h-.455v-.2h.491v-.156h-.677v.914h.694v-.155h-.509v-.247z" style=""/>
    </symbol>
    <symbol id="Logo-3" viewBox="0 0 59 32">
      <path fill="" d="M21.034 28.127c.009 0 .018.002.026.006l.023.013.126.119a1.039 1.039 0 0 1-.347.223l-.007.002c-.16.057-.331.085-.503.081h-.026c-.16 0-.314-.028-.457-.079l.009.003a1.057 1.057 0 0 1-.357-.213l.001.001a.958.958 0 0 1-.228-.323l-.002-.006a1.063 1.063 0 0 1-.081-.41v-.013.001-.014a1 1 0 0 1 .09-.416l-.003.006a.98.98 0 0 1 .245-.329c.107-.092.233-.165.37-.212l.008-.002c.141-.048.303-.076.471-.076h.017-.001c.154-.003.309.021.453.069.125.047.24.111.339.19l-.106.127a.113.113 0 0 1-.026.023.076.076 0 0 1-.037.01h-.006a.1.1 0 0 1-.046-.014l-.057-.034-.078-.043a.88.88 0 0 0-.244-.075l-.005-.001a1.146 1.146 0 0 0-.172-.013h-.017.001-.012c-.121 0-.237.021-.345.059l.007-.002a.816.816 0 0 0-.275.16l.001-.001a.733.733 0 0 0-.178.254.824.824 0 0 0-.065.323v.012-.001.013c0 .118.024.23.067.332l-.002-.006c.081.193.238.34.432.407l.005.002a.936.936 0 0 0 .325.054 1.38 1.38 0 0 0 .193-.011.768.768 0 0 0 .418-.175l-.001.001a.102.102 0 0 1 .06-.022zm3.644-.596c.002.143-.027.286-.085.419a.906.906 0 0 1-.237.325l-.001.001a1.075 1.075 0 0 1-.373.213 1.557 1.557 0 0 1-.969-.004l.011.003a1.136 1.136 0 0 1-.373-.215l.001.001a.946.946 0 0 1-.237-.323l-.002-.006a1.066 1.066 0 0 1 .003-.847l-.003.007a.992.992 0 0 1 .24-.33c.105-.088.228-.159.363-.203l.008-.002c.309-.103.65-.103.959 0 .14.049.267.121.372.214a.965.965 0 0 1 .324.721v.026-.001zm-.332 0a.869.869 0 0 0-.059-.337.693.693 0 0 0-.431-.409l-.005-.001a1.113 1.113 0 0 0-.706.003l.008-.002a.732.732 0 0 0-.267.16.685.685 0 0 0-.169.247l-.002.005a.98.98 0 0 0 .002.681l-.002-.007a.69.69 0 0 0 .437.41c.225.072.472.072.697 0a.7.7 0 0 0 .435-.41.836.836 0 0 0 .06-.314v-.024.001zm2.817.354.033.075c.013-.027.024-.051.037-.075a.62.62 0 0 1 .043-.077l-.001.002.806-1.251c.016-.022.03-.035.046-.04s.035-.007.054-.007h.013-.001.238v2.036h-.282v-1.56l-.001-.035.001-.037v.002l-.811 1.269a.11.11 0 0 1-.047.046h-.001a.14.14 0 0 1-.068.017h-.049a.137.137 0 0 1-.069-.018h.001a.12.12 0 0 1-.047-.045v-.001l-.834-1.278v1.634h-.273V26.51h.248c.02 0 .039.003.057.007h-.002a.087.087 0 0 1 .044.038l.823 1.253c.017.023.03.048.041.073zm3.034-.101v.762h-.315v-2.033h.703a1.52 1.52 0 0 1 .393.045.79.79 0 0 1 .278.126c.067.052.121.12.156.197l.001.003a.619.619 0 0 1 .054.26v.009c0 .185-.089.35-.227.453l-.001.001a.814.814 0 0 1-.274.134l-.006.001a1.33 1.33 0 0 1-.355.047h-.026l-.38-.006zm0-.218h.382a.915.915 0 0 0 .245-.031.54.54 0 0 0 .178-.088l-.001.001a.383.383 0 0 0 .145-.301v-.005l.001-.021a.328.328 0 0 0-.034-.147l.001.002a.394.394 0 0 0-.11-.138l-.001-.001a.677.677 0 0 0-.426-.109h.002-.382v.838zm4.24.983h-.253a.12.12 0 0 1-.065-.019.139.139 0 0 1-.041-.046v-.001l-.214-.492h-1.078l-.222.491a.118.118 0 0 1-.106.066h-.253l.946-2.036h.328l.959 2.036zm-1.562-.756h.89l-.375-.829a1.236 1.236 0 0 1-.069-.182l-.002-.009-.036.106a.858.858 0 0 1-.034.086l-.373.829zm2.925-1.271a.14.14 0 0 1 .047.036l1.381 1.535v-1.581h.282v2.036h-.164a.153.153 0 0 1-.06-.012h.001a.174.174 0 0 1-.05-.038l-1.378-1.534.001.035-.001.037v-.002 1.513h-.282v-2.036h.172c.019 0 .036.003.053.01h-.001zm4.034 1.217v.809h-.315v-.809l-.872-1.226h.289c.023 0 .044.006.061.018a.179.179 0 0 1 .042.045v.001l.546.791c.037.052.07.112.094.175l.002.005.041-.087a.724.724 0 0 1 .054-.093l.538-.797a.187.187 0 0 1 .041-.043.102.102 0 0 1 .062-.02h.291l-.874 1.232zm-12.827-4.644c.137.015.276.027.417.038 2.129-.813 3.929-2.145 5.177-3.828s1.887-3.642 1.838-5.634l-2.345-2.004a10.045 10.045 0 0 1-.645 6.331c-.898 2.018-2.436 3.783-4.441 5.097z" style=""/>
      <path fill="" d="m26.17 23.002.063.011c2.143-1.31 3.777-3.138 4.69-5.25s1.065-4.408.433-6.594l-3.341-2.854c1.351 2.346 1.895 4.972 1.569 7.571s-1.511 5.067-3.414 7.115zm11.33-6.978c-.567 2.189-1.946 4.162-3.931 5.629-.541.405-1.152.786-1.796 1.112l-.071.033c1.616-.406 3.102-1.123 4.342-2.097s2.202-2.178 2.811-3.52l-1.354-1.157z" style=""/>
      <path fill="" d="m36.969 15.702-1.929-1.648c-.037 1.879-.662 3.715-1.811 5.318s-2.779 2.914-4.721 3.796h.01c.433 0 .865-.022 1.295-.066 1.815-.633 3.419-1.64 4.667-2.931s2.104-2.827 2.489-4.469zm-10.52-8.59-2.301-1.969c-2.057.679-3.827 1.873-5.077 3.426s-1.922 3.392-1.929 5.277c.008 2.082.828 4.103 2.331 5.742s3.603 2.803 5.967 3.308c2.111-2.198 3.347-4.913 3.528-7.751s-.702-5.651-2.52-8.032zm15.837 8.287c-.009-2.47-1.161-4.838-3.206-6.585-2.044-1.747-4.815-2.731-7.706-2.739h-.025c-1.388 0-2.723.227-3.97.647l.088-.026 14.091 12.039c.459-.98.727-2.127.729-3.337v-.001z" style=""/>
    </symbol>
    <symbol id="Logo-4" viewBox="0 0 59 32">
      <path fill="" d="M13.759 12.296h-.002c-1.363 0-2.469.997-2.469 2.225v.002c0 1.229 1.106 2.225 2.469 2.225h.002c1.363 0 2.469-.996 2.469-2.225v-.002c0-1.229-1.105-2.225-2.469-2.225zm18.219-.711c-.003-1.707-.757-3.343-2.096-4.551-1.339-1.207-3.153-1.887-5.047-1.891-1.894.003-3.709.683-5.049 1.89s-2.094 2.844-2.097 4.551v9.414s14.287-1.434 14.289-9.412v-.002zM6.286 24.088c.003 1.188.528 2.326 1.459 3.166s2.194 1.314 3.511 1.317c1.317-.003 2.579-.477 3.511-1.317s1.456-1.977 1.46-3.166v-6.549s-9.942.998-9.942 6.548zm4.971 1.174c-.257 0-.509-.069-.723-.198a1.218 1.218 0 0 1-.476-.52l-.003-.007a1.045 1.045 0 0 1-.073-.685l-.001.007c.056-.241.182-.446.355-.6l.001-.001c.181-.161.408-.275.659-.32l.008-.001c.253-.046.514-.022.752.067s.441.239.584.432a1.093 1.093 0 0 1 .121 1.103 1.164 1.164 0 0 1-.282.382c-.119.107-.26.194-.414.252l-.009.003c-.148.057-.319.09-.498.09h-.002v-.005zm9.091-2.111v2.438h-.502v-2.438h.502zm.971 1.042v.392H20.21v-.392h1.109zm.117-1.042v.393h-1.225v-.393h1.225zm2.294 1.162v.115c0 .186-.025.352-.075.499a1.102 1.102 0 0 1-.214.379l.001-.001a.919.919 0 0 1-.328.236c-.12.052-.259.082-.405.082h-.016.001c-.153 0-.293-.027-.42-.082a.951.951 0 0 1-.327-.235l-.001-.001a1.106 1.106 0 0 1-.214-.369l-.002-.008a1.505 1.505 0 0 1-.076-.477v-.023.001-.115c0-.186.025-.353.075-.499.048-.145.121-.271.214-.378l-.001.001a.938.938 0 0 1 .328-.238c.12-.052.261-.082.408-.082h.013-.001c.154 0 .294.027.42.082a.912.912 0 0 1 .328.238c.093.104.164.229.214.377.051.146.077.312.077.498zm-.508.116v-.119c0-.129-.011-.243-.035-.341a.743.743 0 0 0-.106-.251l.002.003a.448.448 0 0 0-.165-.15l-.002-.001a.478.478 0 0 0-.216-.052h-.01a.485.485 0 0 0-.226.051.465.465 0 0 0-.165.149l-.001.002a.752.752 0 0 0-.101.243l-.001.005a1.452 1.452 0 0 0-.035.32v.022-.001.119c0 .129.011.242.035.342a.76.76 0 0 0 .104.25c.046.067.102.118.167.152s.141.052.226.052c.085 0 .16-.017.226-.051a.453.453 0 0 0 .165-.151l.001-.002a.77.77 0 0 0 .102-.25c.022-.097.035-.207.035-.321v-.022.001zm2.138.522v-.005a.308.308 0 0 0-.021-.114l.001.002a.23.23 0 0 0-.07-.097.636.636 0 0 0-.142-.087l-.004-.002a1.852 1.852 0 0 0-.228-.086l-.015-.004a3.048 3.048 0 0 1-.334-.128l.019.008a1.265 1.265 0 0 1-.264-.158l.003.002a.691.691 0 0 1-.175-.206l-.002-.004a.575.575 0 0 1-.064-.264v-.012.001-.008c0-.098.025-.191.068-.271l-.002.003a.637.637 0 0 1 .187-.214.861.861 0 0 1 .285-.139 1.27 1.27 0 0 1 .353-.049h.011-.001c.179 0 .337.033.47.097s.238.154.311.266a.691.691 0 0 1 .112.387h-.499v-.009a.38.38 0 0 0-.046-.181l.001.002a.307.307 0 0 0-.132-.128l-.002-.001a.467.467 0 0 0-.207-.047h-.019.001-.017a.517.517 0 0 0-.204.042l.003-.001a.295.295 0 0 0-.131.105l-.001.001a.257.257 0 0 0-.043.143v.005c0 .041.01.079.03.112a.343.343 0 0 0 .093.093l.001.001c.041.029.091.057.152.082s.13.051.209.075c.133.04.25.085.35.135s.186.106.254.169a.62.62 0 0 1 .205.483v.023a.587.587 0 0 1-.24.473l-.002.001a.839.839 0 0 1-.279.132 1.325 1.325 0 0 1-.348.046h-.016.001a1.4 1.4 0 0 1-.357-.047 1.067 1.067 0 0 1-.324-.148l.004.002a.742.742 0 0 1-.226-.244l-.002-.004a.7.7 0 0 1-.085-.338v-.02.001h.504c0 .076.011.14.035.193a.323.323 0 0 0 .098.126l.001.001a.436.436 0 0 0 .151.07l.003.001c.06.015.126.022.197.022h.019c.07 0 .138-.014.199-.038l-.004.001a.265.265 0 0 0 .167-.246v-.004zm1.934-1.8v2.438h-.501v-2.438h.501zm.75 0v.393h-1.989v-.393h1.989zm1.922 2.046v.392h-1.297v-.392h1.297zm-1.133-2.046v2.438h-.503v-2.438h.503zm.964.993v.382h-1.129v-.382h1.129zm.167-.993v.393h-1.296v-.393h1.296zm.295 0h.909c.187 0 .347.028.481.083.135.056.239.139.311.248s.109.244.109.403a.773.773 0 0 1-.067.337.647.647 0 0 1-.184.232l-.001.001a.965.965 0 0 1-.273.145l-.007.002-.159.084h-.79l-.003-.392h.604a.46.46 0 0 0 .206-.048l-.003.001a.317.317 0 0 0 .13-.129l.001-.002a.392.392 0 0 0 .045-.185v-.021a.436.436 0 0 0-.045-.194l.001.003a.294.294 0 0 0-.131-.13l-.002-.001a.484.484 0 0 0-.207-.046h-.017.001-.407v2.045h-.502v-2.438zm1.362 2.438-.555-1.087.53-.003.563 1.067v.023h-.537zm2.637-.868h-.621v-.392h.641a.493.493 0 0 0 .217-.049l-.003.001a.3.3 0 0 0 .131-.133l.001-.002a.485.485 0 0 0-.002-.398l.001.003a.342.342 0 0 0-.131-.15l-.001-.001a.433.433 0 0 0-.216-.058h-.019.001-.447v2.045h-.502v-2.438h.949c.191 0 .354.034.491.104.137.068.242.162.314.283s.109.258.109.413c0 .158-.036.294-.109.409s-.177.204-.314.266c-.137.063-.3.094-.491.094zm2.896.476v.392h-1.297v-.392h1.297zm-1.133-2.046v2.438h-.503v-2.438h.503zm.964.993v.382h-1.128v-.382h1.129zm.168-.993v.393h-1.295v-.393h1.295zm1.418 0v2.438h-.501v-2.438h.501zm.75 0v.393h-1.989v-.393h1.989zm1.921 2.046v.392h-1.297v-.392h1.297zm-1.133-2.046v2.438h-.502v-2.438h.502zm.964.993v.382h-1.128v-.382h1.128zm.168-.993v.393h-1.295v-.393h1.295zm.294 0h.939c.162 0 .317.031.46.087l-.009-.003c.135.056.239.139.311.248s.109.244.109.403c0 .131-.023.243-.067.337s-.107.171-.184.232l-.001.001a.965.965 0 0 1-.273.145l-.007.002-.159.084h-.79l-.003-.392h.604a.46.46 0 0 0 .206-.048l-.003.001a.317.317 0 0 0 .13-.129l.001-.002a.394.394 0 0 0 .046-.186v-.018a.44.44 0 0 0-.045-.195l.001.003a.297.297 0 0 0-.13-.13l-.002-.001a.484.484 0 0 0-.207-.046h-.017.001-.407v2.045h-.502v-2.438zm1.363 2.438-.556-1.087.531-.003.562 1.067v.023h-.537zm2.103-.638v-.004a.341.341 0 0 0-.021-.116l.001.002a.23.23 0 0 0-.07-.097.636.636 0 0 0-.142-.087l-.004-.002a1.793 1.793 0 0 0-.228-.086l-.015-.004a2.899 2.899 0 0 1-.334-.128l.019.008a1.291 1.291 0 0 1-.264-.158l.003.002a.691.691 0 0 1-.175-.206l-.002-.004a.575.575 0 0 1-.064-.264v-.012.001-.008c0-.098.025-.191.068-.271l-.002.003a.637.637 0 0 1 .187-.214.861.861 0 0 1 .285-.139 1.27 1.27 0 0 1 .353-.049h.011-.001c.179 0 .337.033.47.097s.238.154.311.266a.683.683 0 0 1 .112.387H45v-.009a.38.38 0 0 0-.046-.181l.001.002a.307.307 0 0 0-.132-.128l-.002-.001a.467.467 0 0 0-.207-.047h-.019.001-.017a.517.517 0 0 0-.204.042l.003-.001a.287.287 0 0 0-.13.105l-.001.001a.257.257 0 0 0-.043.144v.004c0 .041.01.079.03.112a.343.343 0 0 0 .093.093l.001.001c.041.029.091.057.152.082s.13.051.209.075c.133.04.25.085.35.135s.186.106.254.169a.62.62 0 0 1 .205.483v.023a.585.585 0 0 1-.24.473l-.002.001c-.078.058-.171.102-.279.132s-.229.046-.363.046c-.121 0-.24-.016-.357-.047a1.067 1.067 0 0 1-.324-.148l.004.002a.732.732 0 0 1-.226-.244l-.002-.004a.7.7 0 0 1-.085-.338v-.02.001h.504c0 .076.011.14.035.193a.323.323 0 0 0 .098.126l.001.001a.436.436 0 0 0 .151.07l.003.001c.06.015.126.022.198.022h.018c.07 0 .138-.014.199-.038l-.004.001a.265.265 0 0 0 .167-.246v-.004z" style=""/>
    </symbol>
    <symbol id="Logo-5" viewBox="0 0 59 32">
      <path fill="" d="M15.31 25.356c.14.157.215.352.211.553.007.131-.019.262-.075.383s-.143.229-.252.315a1.516 1.516 0 0 1-.956.254h.005-1.671v-3.504h1.637a1.51 1.51 0 0 1 .914.236l-.006-.004c.105.08.189.181.245.294s.08.238.073.362a.756.756 0 0 1-.19.535.91.91 0 0 1-.492.273l-.006.001a.985.985 0 0 1 .565.299zm-1.961-.529h.7a.718.718 0 0 0 .448-.117l-.003.002a.415.415 0 0 0 .119-.153l.001-.003a.376.376 0 0 0 .03-.189v.002l.001-.029a.384.384 0 0 0-.034-.159l.001.003a.443.443 0 0 0-.116-.156h-.001a.726.726 0 0 0-.461-.118h.003-.689v.919zm1.213 1.344a.437.437 0 0 0 .128-.158l.001-.003a.384.384 0 0 0 .037-.168l-.001-.028v.001l.001-.025a.395.395 0 0 0-.04-.175l.001.002a.458.458 0 0 0-.13-.161l-.001-.001a.777.777 0 0 0-.429-.128c-.016 0-.033 0-.049.002h.002-.734v.964h.743a.794.794 0 0 0 .47-.122zm4.095.692-.911-1.37h-.343v1.369h-.783v-3.504h1.483a1.566 1.566 0 0 1 1.037.3l-.004-.003c.207.19.333.441.353.707s-.066.529-.242.743a1.246 1.246 0 0 1-.707.357l.97 1.4h-.851zm-1.254-1.848h.641c.445 0 .667-.177.667-.531l.001-.029a.488.488 0 0 0-.038-.187l.001.003a.51.51 0 0 0-.127-.181.741.741 0 0 0-.506-.141h.003-.649l.008 1.066zm5.536 1.142h-1.562l-.276.705h-.821l1.434-3.465h.888l1.428 3.465h-.822l-.27-.705zm-.209-.53-.571-1.479-.57 1.479h1.141zm5.569 1.236h-.777l-1.744-2.383v2.383h-.776v-3.505h.776l1.743 2.397v-2.397h.778v3.504zm4.438-.84c-.169.27-.409.482-.693.614l-.01.004a2.5 2.5 0 0 1-1.093.221h-1.385v-3.504h1.385l.064-.001c.372 0 .726.08 1.045.223l-.016-.006c.298.135.543.349.703.611a1.867 1.867 0 0 1-.005 1.847l.005-.009zm-.89-.083c.211-.216.341-.511.344-.836a1.207 1.207 0 0 0-.344-.836 1.438 1.438 0 0 0-.978-.298h.004-.54v2.269h.54a1.443 1.443 0 0 0 .977-.3l-.003.002zM23.426 3.867s10.038 3.411 9.825 8.349v8.351s-10.031-3.414-9.822-8.351l-.003-8.349zm18.768 14.744a14.707 14.707 0 0 1 6.378-2.116v-2.614c-2.638.915-4.875 2.574-6.378 4.73z" style=""/>
      <path fill="" d="M41.055 19.399c1.551-2.813 4.242-4.983 7.517-6.065V5.801s-14.296 4.86-13.994 11.891v11.889s.637-.217 1.639-.625c0-.38 0-.763.046-1.149.296-3.264 2.019-6.289 4.792-8.409z" style=""/>
      <path fill="" d="M39.695 23.815c.084-.899.261-1.726.523-2.513l-.023.079c-1.727 1.831-2.772 4.103-2.99 6.497-.021.226-.032.451-.038.685a40.123 40.123 0 0 0 2.987-1.418l-.237.114a11.185 11.185 0 0 1-.219-3.487l-.003.044zm.568.043a10.655 10.655 0 0 0 .189 3.187l-.012-.07c3.906-2.104 8.294-5.354 8.125-9.283v-.343c-2.79.282-5.401 1.38-7.431 3.126a10.503 10.503 0 0 0-.868 3.341l-.003.042z" style=""/>
    </symbol>
    <symbol id="Logo-6" viewBox="0 0 59 32">
      <path fill="" d="M30.589 15.682a1.673 1.673 0 0 1-.346-1.143v.005-1.65c0-.506.115-.89.345-1.153s.624-.394 1.183-.393c.526 0 .898.112 1.119.336.24.286.357.635.33.987v.389h-.939v-.393a2.072 2.072 0 0 0-.027-.385.372.372 0 0 0-.133-.228l-.001-.001a.541.541 0 0 0-.343-.088h.002l-.041-.001a.572.572 0 0 0-.319.097l.002-.001a.437.437 0 0 0-.155.249l-.001.003a1.844 1.844 0 0 0-.037.376v.034-.002 2.003a1.022 1.022 0 0 0 .123.567l-.003-.005a.46.46 0 0 0 .184.136l.003.001c.076.029.16.04.243.031.12.009.24-.024.333-.091a.407.407 0 0 0 .14-.241v-.002a2.11 2.11 0 0 0 .03-.359v-.044.002-.406h.94v.371a1.507 1.507 0 0 1-.328 1.04l.002-.003c-.215.245-.583.367-1.124.367s-.949-.131-1.181-.403zm3.912.017c-.237-.257-.356-.631-.356-1.127v-1.736c0-.49.119-.861.356-1.113s.634-.377 1.191-.376c.553 0 .947.126 1.185.376.238.252.358.623.358 1.113v1.736c0 .49-.121.866-.362 1.125s-.634.387-1.181.387-.951-.131-1.191-.386zm1.628-.417a.968.968 0 0 0 .113-.514v-2.126a.942.942 0 0 0-.113-.508l.002.005a.452.452 0 0 0-.188-.138L35.94 12a.52.52 0 0 0-.251-.03h.003a.521.521 0 0 0-.253.031l.004-.001a.45.45 0 0 0-.193.137l-.001.001a.912.912 0 0 0-.113.503v2.136a.95.95 0 0 0 .113.514.65.65 0 0 0 .685.126l-.004.002a.598.598 0 0 0 .198-.128v-.01zm2.236-3.884h1.011l.761 3.203.778-3.203h.985l.099 4.623h-.728l-.078-3.213-.751 3.213h-.583l-.778-3.225-.072 3.225h-.735l.091-4.623zm4.768 0h1.576c.907 0 1.362.438 1.362 1.313 0 .838-.478 1.257-1.434 1.256H44.1v2.055h-.973l.006-4.623zm1.346 1.976a.765.765 0 0 0 .535-.146.744.744 0 0 0 .139-.525v.003l.001-.053c0-.13-.017-.257-.05-.377l.002.01a.345.345 0 0 0-.072-.127.405.405 0 0 0-.121-.092l-.002-.001a1 1 0 0 0-.382-.075l-.055.002h.003-.377v1.382h.377zm2.995-1.976h1.045l1.072 4.623h-.907l-.211-1.066h-.932l-.218 1.066h-.92l1.072-4.623zm.893 3.021-.364-1.941-.364 1.941h.727zm2.089-3.021h.681l1.303 2.637v-2.637h.808v4.623H52.6l-1.311-2.753v2.753h-.834l.002-4.623zm4.683 2.86-1.083-2.854h.913l.661 1.833.621-1.833h.893l-1.07 2.854v1.762h-.934v-1.762zM32.09 18.042v.242h-.794v1.878h-.332v-1.878h-.798v-.242h1.924zm2.488 2.12h-.264a.119.119 0 0 1-.065-.02.117.117 0 0 1-.043-.048v-.001l-.23-.503h-1.101l-.23.503a.142.142 0 0 1-.034.057.117.117 0 0 1-.066.02h-.264l.973-2.12h.338l.985 2.111zm-1.611-.787h.918l-.389-.863a1.417 1.417 0 0 1-.07-.189l-.003-.011-.037.113-.035.089-.385.861zm3.288.579a1.02 1.02 0 0 0 .347-.027l-.008.002c.056-.012.103-.025.148-.041l-.008.003c.043-.015.086-.034.13-.053v-.477h-.394a.064.064 0 0 1-.024-.004h.001a.092.092 0 0 1-.024-.013.061.061 0 0 1-.015-.017.041.041 0 0 1-.005-.019v-.165h.755v.813a1.45 1.45 0 0 1-.4.171l-.01.002a1.768 1.768 0 0 1-.235.043l-.008.001a2.768 2.768 0 0 1-.284.014h-.011c-.172 0-.336-.029-.489-.083l.01.003a1.194 1.194 0 0 1-.391-.223l.002.001a1.035 1.035 0 0 1-.249-.33l-.003-.006a1.05 1.05 0 0 1-.089-.426v-.015.001-.013c0-.155.032-.303.09-.437l-.003.007a.982.982 0 0 1 .251-.336c.11-.094.239-.169.38-.218l.008-.003a1.64 1.64 0 0 1 .522-.079c.091 0 .181.006.27.018a1.273 1.273 0 0 1 .595.249l-.093.131a.079.079 0 0 1-.032.028.093.093 0 0 1-.044.011.139.139 0 0 1-.061-.017h.001a1.278 1.278 0 0 1-.1-.053l.005.003a.798.798 0 0 0-.125-.055l-.006-.002a1.208 1.208 0 0 0-.171-.046l-.008-.001a1.417 1.417 0 0 0-.234-.018h-.014.001-.012c-.13 0-.255.022-.372.061l.008-.002a.81.81 0 0 0-.286.169l.001-.001a.742.742 0 0 0-.182.263.982.982 0 0 0 .003.714l-.002-.007c.043.099.109.19.195.267.08.073.177.13.284.168.124.037.255.051.385.042zm3.102-.033h1.063v.242h-1.387v-2.12h.333l-.008 1.878zm2.167.241h-.333v-2.12h.333v2.12zm1.237-2.11c.02.01.037.023.051.039l1.422 1.598-.001-.038.002-.039v.002-1.58h.29v2.129h-.178a.16.16 0 0 1-.062-.013h.001a.19.19 0 0 1-.052-.04l-1.42-1.597v1.649h-.278v-2.121h.173c.019 0 .038.003.055.01zm4.213-.01v.233h-1.179v.7h.955v.225h-.955v.723h1.179v.233h-1.522v-2.115h1.522zM12.111 4.948l14.773 3.619V21.25l-14.773-3.617V4.947zm-.947-1.081v14.382l16.666 4.085V7.954L11.164 3.868z" style=""/>
      <path fill="" d="M20.096 29.01 3.429 24.922V10.541l16.667 4.086V29.01z" style=""/>
      <path fill="" d="m11.44 4.785 14.58 3.574-6.2 5.352-14.582-3.576 6.202-5.35zm-.276-.918-7.735 6.674 16.667 4.086 7.734-6.674-16.666-4.086zm9.87 24.333 6.795-5.865-6.796-1.667v7.533z" style=""/>
    </symbol>
    <symbol id="Logo-1" viewBox="0 0 59 32">
      <path fill="" d="m21.714 4 4.005 3.815-7.433-.003v18.509h19.429v-7.077l4 3.811V4.001h-20zm15.824 14.795L26.184 7.978h11.354v10.817zm-3.525 4.818H21.36V11.165h.894v11.606h11.759v.843zm-10.13 6.137-.471-.97h-.389l.683 1.283v.748h.353v-.748l.684-1.283h-.388l-.471.97zm1.739-.971h.083l.767 2.031h-.368l-.165-.475h-.786l-.164.475h-.367l.765-2.031h.234zm-.373 1.279h.595l-.297-.862-.297.862zm2.455-.337-.035-.044-.009-.013a1.04 1.04 0 0 1-.119-.193l-.003-.006a.546.546 0 0 1 .022-.474.44.44 0 0 1 .183-.175l.003-.001a.596.596 0 0 1 .28-.063h.014c.092 0 .179.023.255.064l-.003-.001a.439.439 0 0 1 .199.565l.001-.003a.511.511 0 0 1-.097.145 1.082 1.082 0 0 1-.139.123l-.003.002-.141.103.402.474a.796.796 0 0 0 .088-.365v-.015.001h.29c0 .099-.01.192-.029.28a.873.873 0 0 1-.15.338l.002-.002.297.351h-.389l-.118-.139a.786.786 0 0 1-.203.113l-.005.002a.921.921 0 0 1-.308.053h-.008a.779.779 0 0 1-.35-.074.554.554 0 0 1-.227-.201l-.001-.002a.553.553 0 0 1-.08-.288v-.02c0-.076.019-.147.053-.209l-.001.002a.722.722 0 0 1 .141-.177c.055-.05.118-.099.189-.149zm.167.204-.042.03a.512.512 0 0 0-.109.114l-.001.002a.334.334 0 0 0-.018.345l-.001-.002a.295.295 0 0 0 .112.115l.001.001c.05.027.109.042.172.042h.011-.001a.513.513 0 0 0 .228-.053l-.003.001a.596.596 0 0 0 .104-.066l-.001.001-.451-.531zm.08-.371.125-.083a.468.468 0 0 0 .125-.113l.001-.001a.25.25 0 0 0 .038-.133v-.01a.203.203 0 0 0-.202-.196h-.012.001-.006a.207.207 0 0 0-.187.119l-.001.001a.288.288 0 0 0 .01.25l-.001-.002c.021.044.05.09.088.138l.023.03zm3.554.596h-.349a.635.635 0 0 1-.066.228l.002-.004a.317.317 0 0 1-.139.137l-.002.001a.522.522 0 0 1-.22.048h-.022.001-.012a.429.429 0 0 1-.202-.05l.002.001a.403.403 0 0 1-.144-.137l-.001-.002a.677.677 0 0 1-.083-.209l-.001-.004a1.322 1.322 0 0 1-.027-.268v-.011.001-.171c0-.109.01-.204.029-.288a.632.632 0 0 1 .093-.215l-.001.002a.395.395 0 0 1 .146-.13l.002-.001a.457.457 0 0 1 .198-.045h.012-.001c.097 0 .177.017.237.05s.106.08.137.143a.65.65 0 0 1 .061.224h.349a.858.858 0 0 0-.117-.365l.002.004a.648.648 0 0 0-.256-.245l-.003-.002a.849.849 0 0 0-.384-.09h-.027.001c-.127 0-.242.023-.345.067s-.189.109-.261.194a.871.871 0 0 0-.166.296l-.002.006c-.038.118-.057.25-.057.396v.169c0 .146.019.278.056.396s.093.219.165.303a.745.745 0 0 0 .597.26c.163 0 .303-.03.417-.089s.203-.141.266-.245a.793.793 0 0 0 .111-.355zm1.937-.299v-.111c0-.153-.02-.291-.061-.411a.906.906 0 0 0-.172-.313l.001.001a.74.74 0 0 0-.262-.195l-.005-.002a.83.83 0 0 0-.343-.069.83.83 0 0 0-.342.069.746.746 0 0 0-.267.197.946.946 0 0 0-.173.311 1.26 1.26 0 0 0-.062.393v.019-.001.111c0 .154.021.291.062.413.04.12.1.223.176.312l-.001-.001a.776.776 0 0 0 .608.264c.125 0 .24-.023.343-.067a.736.736 0 0 0 .265-.197.899.899 0 0 0 .171-.311c.038-.118.06-.253.06-.394v-.02.001zm-.349-.114v.114c0 .114-.011.214-.034.302a.664.664 0 0 1-.096.224l.002-.002a.413.413 0 0 1-.151.134l-.002.001a.462.462 0 0 1-.199.045h-.019a.453.453 0 0 1-.201-.046l.003.001a.448.448 0 0 1-.155-.134l-.001-.001a.658.658 0 0 1-.097-.217l-.001-.005a1.168 1.168 0 0 1-.034-.286v-.017.001-.114c0-.113.011-.213.034-.3s.054-.16.096-.219a.426.426 0 0 1 .153-.133l.002-.001a.445.445 0 0 1 .199-.046h.008c.077 0 .146.015.208.046s.113.074.154.134a.614.614 0 0 1 .097.219c.023.087.034.187.034.3z" style=""/>
    
<svg xmlns="http://www.w3.org/2000/svg" aria-hidden="true" style="position:absolute;width:0;height:0;overflow:hidden">
  <defs>
    <symbol id="icon-icon-man" viewBox="0 0 29 32">
      <path d="M27.75 13.653a1.989 1.989 0 0 0-1.324-.79l-.011-.001a1.987 1.987 0 0 0-1.509.4l.004-.003-1.406 1.077-2.131 1.592-1.524-.607c2.718-1.219 4.619-3.939 4.619-7.096 0-4.293-3.506-7.784-7.816-7.784S8.836 3.933 8.836 8.225c0 1.556.465 3.002 1.258 4.22l-3.109-.027c-.01 0-.017.005-.026.006a.575.575 0 0 0-.178.036l.004-.001c-.015.006-.029.008-.043.015-.007.003-.014.003-.021.007L3.09 14.274.964 15.297a.448.448 0 0 0-.072.04l.002-.001a1.999 1.999 0 0 0-.666 2.587l-.005-.011a1.99 1.99 0 0 0 1.186.999 1.986 1.986 0 0 0 1.558-.15l-.01.005 1.558-.829 2.542-1.313 1.524-.01-6.11 6.082-.002.001-1.503 1.497c-.34.336-.55.802-.55 1.317v.006a1.87 1.87 0 0 0 1.871 1.868h.004a1.87 1.87 0 0 0 1.325-.545l1.476-1.469 1.954-1.46 1.012 1.007-3.483 3.468c-.34.336-.55.802-.55 1.317v.005c0 .5.195.97.55 1.324.365.363.845.545 1.325.545h.004c.515 0 .982-.208 1.321-.545l3.91-3.892.001-.002 1.133-1.123-.005-.004c.007-.007.017-.01.025-.017l5.8-6.354 3.897.554a.594.594 0 0 0 .299-.038l-.004.001c.02-.007.037-.017.056-.026.021-.011.044-.017.064-.03l3.608-2.395c.013-.009.02-.023.033-.033.014-.011.032-.017.045-.029l1.428-1.337c.39-.365.633-.884.633-1.459 0-.449-.148-.864-.399-1.198l.004.005zM2.392 17.707a.8.8 0 0 1-.627.058.804.804 0 0 1-.241-1.413l.002-.002 1.475-.71.355 1.038.149.436-1.114.592zm3.927-2.052-1.739.898-.286-.839-.206-.602 2.275-1.123-.044 1.666zm16.953-7.434a6.502 6.502 0 0 1-.673 2.874l-4.695-2.132a2.092 2.092 0 0 0-.878-1.554l-.007-.004 1.644-5.457c2.669.848 4.609 3.339 4.609 6.273zm-13.236 0c0-3.632 2.969-6.588 6.618-6.588.284 0 .561.024.837.059l-1.608 5.337c-.021 0-.042-.006-.064-.006h-.001a2.102 2.102 0 0 0-2.102 2.095 2.103 2.103 0 0 0 2.102 2.096h.001a2.094 2.094 0 0 0 1.811-1.05l.005-.01 4.337 1.971a6.617 6.617 0 0 1-5.318 2.684c-3.649 0-6.618-2.956-6.618-6.588zm6.688.898a.903.903 0 0 1-.905.898h-.002a.904.904 0 0 1-.903-.898c0-.495.406-.898.905-.898s.905.403.905.898zM2.767 25.988a.68.68 0 0 1-.959.001.666.666 0 0 1 0-.948l1.08-1.076.956.952-1.076 1.072zm3.609 4.192a.681.681 0 0 1-.96.001.666.666 0 0 1 0-.948l1.081-1.077.956.952-1.077 1.072zm3.909-3.894-.002.001-1.982 1.976-.956-.952 1.98-1.972.002-.001c.045-.045.073-.099.101-.152.007-.016.022-.029.029-.045.019-.047.021-.096.028-.145.004-.027.016-.053.016-.081 0-.04-.014-.079-.022-.118-.007-.036-.007-.073-.021-.107a.569.569 0 0 0-.103-.154c-.011-.013-.015-.03-.028-.043h-.001l-.001-.002-1.804-1.797c-.019-.019-.044-.027-.065-.043a.626.626 0 0 0-.095-.063l-.003-.002a.57.57 0 0 0-.101-.036l-.004-.001a.492.492 0 0 0-.113-.022h-.025a.615.615 0 0 0-.087.006h.003a.6.6 0 0 0-.122.024l.004-.001a.636.636 0 0 0-.108.052l.002-.001c-.022.012-.048.017-.069.032l-1.991 1.487-1.011-1.007 2.694-2.68 4.895 4.816-1.041 1.032zm7.656-7.879c-.017-.002-.034.005-.051.003l-.029-.001a.6.6 0 0 0-.104.009l.004-.001a.547.547 0 0 0-.21.078l.002-.001a.616.616 0 0 0-.094.069c-.015.012-.032.019-.045.033l-5.276 5.778-4.859-4.78 3.181-3.164a.6.6 0 0 0-.425-1.023h-.002l-2.491.015.031-1.805 3.485.03a7.78 7.78 0 0 0 5.59 2.359h.004c.491 0 .97-.051 1.437-.138.045.036.089.072.146.095l2.705 1.078.171.851.2.994-3.372-.479zm4.538.201-.352-1.749 1.624-1.213 1.063 1.411-2.335 1.551zm4.215-3.179-.941.881-1.045-1.388.934-.715a.807.807 0 0 1 1.053 1.222z"/>
    </symbol>
    <symbol id="icon-icon-long" viewBox="0 0 41 32">
      <path d="M2.047 31.732h32.752c1.13 0 2.047-.916 2.047-2.047v-2.73c0-1.13-.916-2.047-2.047-2.047h-.683V7.892l3.876-3.671a2.057 2.057 0 1 0-.95-.964l-.005-.012-2.92 2.768V4.439c0-1.13-.916-2.047-2.047-2.047H4.777c-1.13 0-2.047.916-2.047 2.047v20.469h-.682c-1.13 0-2.047.916-2.047 2.047v2.731c0 1.13.916 2.047 2.047 2.047zM38.892 1.711a.683.683 0 0 1 0 1.366.683.683 0 0 1 0-1.366zM4.094 4.44a.68.68 0 0 1 .682-.682h27.292c.377 0 .682.305.682.682v2.865l-1.364 1.297V5.805a.682.682 0 0 0-.682-.682H6.141a.682.682 0 0 0-.682.682v17.057c0 .378.305.683.682.683h24.563a.682.682 0 0 0 .682-.683V10.479l1.364-1.293v15.722H4.093V4.44zm6.141 8.87h-.006a2.047 2.047 0 1 0 1.423 3.518l-.001.001 2.372 1.19c.275.138.61.073.815-.157l5.041-5.672 4.956 3.714a.682.682 0 0 0 .878-.051l4.307-4.08v10.408H6.823V6.488h23.199v3.405l-4.828 4.572-4.998-3.747a.679.679 0 0 0-.918.092l-.001.001-5.111 5.75-1.911-.956c.014-.082.023-.164.026-.248 0-1.13-.916-2.046-2.047-2.047zm.682 2.047a.683.683 0 0 1-1.366 0 .683.683 0 0 1 1.366 0zm4.094 10.917h6.823v.682a.682.682 0 0 1-.682.682h-5.459a.682.682 0 0 1-.682-.682v-.682zm-13.647.683c0-.377.306-.682.682-.682h11.599v.683c0 1.13.916 2.047 2.047 2.047h5.459c1.13 0 2.047-.916 2.047-2.047v-.683h11.598c.378 0 .683.305.683.682v2.73a.683.683 0 0 1-.683.682H2.046a.682.682 0 0 1-.682-.682v-2.73z"/>
    </symbol>
    <symbol id="icon-icon-time" viewBox="0 0 31 32">
      <path d="M30.797 15.301C30.795 6.849 23.942-.002 15.489 0S.186 6.855.188 15.308C.19 22.096 4.61 27.851 10.729 29.853l.108.031a.67.67 0 0 0 .529-.064.642.642 0 0 0 .284-.357l3.865-12.25a1.913 1.913 0 1 0-.851-3.63l.011-.005-5.106-5.107a.637.637 0 1 0-.902.902l5.104 5.109a1.873 1.873 0 0 0 .532 2.306l.004.003-3.683 11.673C3.346 25.783-.381 17.71 2.301 10.432 4.982 3.155 13.056-.573 20.333 2.109s11.004 10.755 8.323 18.032c-1.345 3.581-4.004 6.406-7.374 7.938l-.088.036-.398-1.875a.638.638 0 0 0-1.049-.343l.001-.001-3.837 3.425a.639.639 0 0 0 .227 1.084l.005.001 4.898 1.564a.637.637 0 0 0 .818-.743l.001.004-.391-1.839c5.528-2.374 9.329-7.772 9.329-14.057v-.034.002zm-15.305-.637a.638.638 0 0 1 0 1.276.638.638 0 0 1 0-1.276zm2.101 14.863 2.184-1.948.603 2.84-2.787-.892z"/>
    </symbol>
    <symbol id="icon-icon-playt" viewBox="0 0 30 32">
      <path d="m29.773 22.098-8.443-8.505.937-4.615c.242.094.499.143.759.145h.032a2.16 2.16 0 1 0-2.029-1.42l-.005-.015-4.96.605L7.973.16A.53.53 0 0 0 7.597 0a.536.536 0 0 0-.373.155L5.711 1.659a.53.53 0 0 0 0 .754l.814.825C5.382 5.3 4.709 7.76 4.709 10.377c0 4.106 1.656 7.825 4.336 10.526l-.001-.001A.506.506 0 0 0 9.19 21a2.986 2.986 0 0 0-.052.546v6.188h-6.4A2.669 2.669 0 0 0 .071 30.4v1.067c.001.295.24.533.534.533h24.534a.535.535 0 0 0 .534-.534v-1.067a2.67 2.67 0 0 0-2.667-2.666h-6.4v-2.742a14.784 14.784 0 0 0 10.166-1.502l-.077.039.819.823a.534.534 0 0 0 .377.16.532.532 0 0 0 .373-.155l1.512-1.505a.535.535 0 0 0 0-.754zM22.28 6.233a1.067 1.067 0 1 1 .752 1.822h-.003a1.066 1.066 0 0 1-.746-1.822h-.002zm-1.256 3.505-.599 2.945-1.175-1.182 1.774-1.764zm-.605-.902-1.92 1.909-1.485-1.493 3.405-.415zM23.004 28.8a1.6 1.6 0 0 1 1.6 1.6v.534H1.138V30.4a1.6 1.6 0 0 1 1.6-1.6h20.267zm-7.467-2.134v1.067h-5.333v-1.067h5.334zM10.204 25.6v-4.053c0-1.294 1.197-2.346 2.666-2.346s2.667 1.053 2.667 2.346V25.6h-5.333zm6.4-1.696v-2.357c0-1.882-1.675-3.413-3.733-3.413h-.059c-1.353 0-2.54.707-3.213 1.771l-.009.016a13.816 13.816 0 0 1-3.811-9.549c0-2.314.567-4.496 1.569-6.414l-.036.077 18.602 18.709c-1.823.947-3.98 1.502-6.266 1.502-1.079 0-2.128-.124-3.136-.357l.093.018zm11.289-.683L6.836 2.041l.755-.752 7.935 7.98c.004 0 .005.007.009.009l13.114 13.191-.757.752z"/>
<svg xmlns="http://www.w3.org/2000/svg" aria-hidden="true" style="position:absolute;width:0;height:0;overflow:hidden">
  <defs>
    <symbol id="icon-twitter" viewBox="0 0 37 32">
      <path fill="#f4f4fd" d="M36.571 4.661c-1.257.564-2.715.98-4.242 1.176l-.078.008a7.49 7.49 0 0 0 3.283-4.091l.015-.053A14.714 14.714 0 0 1 30.891 3.5l-.096.016a7.497 7.497 0 0 0-12.969 5.125c0 .594.05 1.166.174 1.71A21.207 21.207 0 0 1 2.577 2.547l-.031-.039a7.427 7.427 0 0 0-1.023 3.784 7.5 7.5 0 0 0 3.301 6.22l.026.017a7.386 7.386 0 0 1-3.425-.94l.037.019v.082a7.533 7.533 0 0 0 5.958 7.358l.049.009a7.303 7.303 0 0 1-1.907.247H5.5h.003l-.118.001c-.461 0-.91-.047-1.344-.136l.043.007c.998 2.998 3.741 5.138 6.996 5.223h.01a14.964 14.964 0 0 1-9.279 3.198h-.017.001c-.615 0-1.205-.027-1.794-.103 3.23 2.11 7.185 3.365 11.433 3.365h.073-.004c13.797 0 21.339-11.429 21.339-21.335 0-.331-.011-.651-.027-.969a15.099 15.099 0 0 0 3.724-3.839l.034-.054z" style="fill:var(--color1, #f4f4fd)"/>
    </symbol>
    <symbol id="icon-instagram" viewBox="0 0 32 32">
      <path fill="#f4f4fd" d="M31.968 9.408c-.074-1.7-.35-2.87-.744-3.882a7.844 7.844 0 0 0-1.849-2.839l-.001-.001A7.898 7.898 0 0 0 26.596.862l-.054-.018c-1.02-.394-2.18-.67-3.88-.744C20.946.02 20.4 0 16.06 0c-4.346 0-4.89.02-6.596.094-1.7.074-2.868.35-3.88.744a7.844 7.844 0 0 0-2.839 1.849l-.001.001A7.89 7.89 0 0 0 .918 5.466L.9 5.52C.506 6.54.232 7.7.156 9.4c-.08 1.714-.1 2.26-.1 6.602 0 4.346.02 4.89.094 6.596.074 1.7.35 2.87.744 3.882a7.886 7.886 0 0 0 1.85 2.838c.8.812 1.77 1.444 2.832 1.844 1.02.394 2.18.67 3.882.744 1.706.076 2.25.094 6.596.094 4.344 0 4.888-.02 6.594-.094 1.7-.074 2.87-.35 3.882-.744a8.233 8.233 0 0 0 4.663-4.627l.019-.055c.394-1.02.67-2.18.744-3.882.076-1.706.094-2.25.094-6.596 0-4.344-.006-4.888-.08-6.594zm-2.88 13.064c-.07 1.564-.332 2.408-.552 2.97a5.34 5.34 0 0 1-3.002 3.027l-.036.013c-.562.218-1.412.48-2.968.548-1.688.076-2.194.094-6.464.094s-4.782-.02-6.464-.094c-1.564-.068-2.408-.33-2.97-.55a4.947 4.947 0 0 1-1.837-1.193l-.001-.001a5.001 5.001 0 0 1-1.183-1.804l-.011-.034c-.22-.562-.48-1.412-.55-2.968-.074-1.688-.094-2.196-.094-6.464 0-4.27.02-4.782.094-6.464.07-1.564.332-2.408.55-2.97a4.888 4.888 0 0 1 1.2-1.838 4.975 4.975 0 0 1 1.806-1.183l.034-.011c.56-.22 1.412-.48 2.968-.55 1.688-.074 2.194-.094 6.464-.094 4.276 0 4.78.02 6.464.094 1.562.07 2.406.332 2.968.55a4.929 4.929 0 0 1 1.84 1.194 4.98 4.98 0 0 1 1.192 1.84c.22.56.482 1.41.55 2.968.076 1.688.094 2.194.094 6.464s-.018 4.77-.092 6.456z" style="fill:var(--color1, #f4f4fd)"/>
      <path fill="#f4f4fd" d="M16.06 7.782a8.222 8.222 0 0 0-.01 16.44h.009a8.222 8.222 0 0 0 .01-16.44h-.009zm0 13.554a5.334 5.334 0 1 1 0-10.668 5.334 5.334 0 1 1 0 10.668zM26.524 7.458a1.92 1.92 0 0 1-3.84 0 1.92 1.92 0 0 1 3.84 0z" style="fill:var(--color1, #f4f4fd)"/>
    </symbol>
    <symbol id="icon-linkedin" viewBox="0 0 32 32">
      <path fill="#f4f4fd" d="M31.992 32H32V20.26c0-5.74-1.236-10.164-7.948-10.164-3.226 0-5.392 1.772-6.276 3.45h-.094v-2.912H11.32V32h6.628V21.42c0-2.784.528-5.476 3.976-5.476 3.4 0 3.45 3.178 3.45 5.656V32h6.62zM.528 10.636h6.634V32H.528V10.636zM3.842 0C1.722 0 .002 1.72.002 3.84s1.72 3.88 3.84 3.88c2.122 0 3.844-1.76 3.844-3.88S5.96 0 3.84 0z" style="fill:var(--color1, #f4f4fd)"/>
    </symbol>
    <symbol id="icon-facebook" viewBox="0 0 18 32">
      <path fill="#f4f4fd" d="M13.33 5.314h2.92V.226A36.551 36.551 0 0 0 12.125 0h-.138.007C7.782 0 4.9 2.65 4.9 7.52V12H.25v5.688h4.648V32h5.698V17.69h4.46l.708-5.69h-5.17V8.08c.002-1.644.444-2.768 2.736-2.768z" style="fill:var(--color1, #f4f4fd)"/>
    </symbol>
  </defs>
</svg>
